<svg width="68" height="69" viewBox="0 0 68 69" fill="none" xmlns="http://www.w3.org/2000/svg">
<rect y="0.984375" width="68" height="68" rx="20" fill="#0328EE"/>
<g clip-path="url(#clip0_2350_231)">
<path d="M59.4875 34.7281C59.4875 48.9574 47.973 60.4719 33.7437 60.4719C19.5145 60.4719 8 48.9574 8 34.7281C8 20.4989 19.5145 8.98438 33.7437 8.98438C36.7862 8.98438 39.735 9.49925 42.4498 10.4822C52.3728 14.0395 59.4875 23.5413 59.4875 34.7281Z" fill="white" fill-opacity="0.4"/>
<path d="M58.9728 29.5327C57.1474 20.6863 50.7817 13.478 42.45 10.4824C42.4032 10.4824 42.3564 10.4355 42.3564 10.4355L42.45 15.3971C42.45 16.6608 41.7011 17.831 40.531 18.3459C37.9566 19.4693 35.3822 18.8608 34.3057 21.8096C33.4163 24.0095 35.7567 30.0476 38.6119 30.0476C42.216 30.0476 43.9479 22.7926 45.0244 22.7926C45.7265 22.7926 46.8031 24.9925 48.0669 26.6307C48.9094 27.7541 50.22 28.3626 51.6242 28.3626H54.0113L58.9728 29.5327Z" fill="white"/>
<path d="M38.331 40.3452C37.0204 42.1706 43.901 47.7406 46.1945 46.6641C50.0795 44.8386 52.607 41.0473 52.607 39.6431C52.607 38.2388 50.7816 35.5241 44.5563 39.7367C42.8244 41.0004 39.6884 38.4729 38.331 40.3452Z" fill="white"/>
<path d="M27.8929 35.2425C29.2503 33.8851 29.6715 31.7788 28.9694 30.5618C26.7227 26.4896 21.3867 28.6428 20.8719 32.9022C20.591 35.4766 19.0464 38.0977 17.7358 39.4551C16.4252 40.7657 13.8508 40.0636 13.1487 38.1445C12.353 35.9914 15.1146 35.1957 14.6934 32.4341C14.5998 31.6852 13.804 31.3107 12.8211 31.1703L8.18723 31.3576C8.09361 32.4341 8 33.5575 8 34.7276C8 47.0378 16.6125 57.3353 28.1737 59.8629V55.2758C28.1737 55.2758 28.1737 55.2758 27.0036 54.1057C25.8334 52.9355 28.2205 50.9696 28.8758 48.4888C30.7013 41.4678 24.6164 41.187 24.4292 39.6424C24.242 37.9105 26.5355 36.5999 27.8929 35.2425Z" fill="white"/>
</g>
<defs>
<clipPath id="clip0_2350_231">
<rect width="52" height="52" fill="white" transform="translate(8 8.98438)"/>
</clipPath>
</defs>
</svg>
