<svg width="68" height="69" viewBox="0 0 68 69" fill="none" xmlns="http://www.w3.org/2000/svg">
<rect y="0.984375" width="68" height="68" rx="20" fill="#0328EE"/>
<g clip-path="url(#clip0_2350_251)">
<path d="M31.2596 51.8027C41.7079 51.8027 50.1779 43.2795 50.1779 32.7656C50.1779 22.2517 41.7079 13.7285 31.2596 13.7285C20.8113 13.7285 12.3413 22.2517 12.3413 32.7656C12.3413 43.2795 20.8113 51.8027 31.2596 51.8027Z" fill="white"/>
<path opacity="0.4" d="M53.4256 57.63C52.6907 57.6062 51.9919 57.3039 51.4692 56.7835L46.9891 51.5468C46.0286 50.6684 45.95 49.1756 46.813 48.2C47.2169 47.7913 47.7661 47.5615 48.339 47.5615C48.9118 47.5615 49.461 47.7913 49.865 48.2L55.4994 52.7083C56.311 53.539 56.5614 54.7722 56.1388 55.8567C55.7161 56.9412 54.6994 57.6744 53.543 57.7285L53.4256 57.63Z" fill="white"/>
</g>
<defs>
<clipPath id="clip0_2350_251">
<rect width="45" height="45" fill="white" transform="translate(12 12.9844)"/>
</clipPath>
</defs>
</svg>
