<svg width="68" height="69" viewBox="0 0 68 69" fill="none" xmlns="http://www.w3.org/2000/svg">
<g clip-path="url(#clip0_2350_242)">
<rect y="0.984375" width="68" height="68" rx="20" fill="#0328EE"/>
<path opacity="0.15" d="M13.5728 53.4482C13.5728 53.8544 15.7776 54.2438 19.7022 54.531C23.6267 54.8182 28.9496 54.9795 34.4998 54.9795C40.05 54.9795 45.3729 54.8182 49.2975 54.531C53.2221 54.2438 55.4269 53.8544 55.4269 53.4482C55.4269 53.0421 53.2221 52.6526 49.2975 52.3655C45.3729 52.0783 40.05 51.917 34.4998 51.917C28.9496 51.917 23.6267 52.0783 19.7022 52.3655C15.7776 52.6526 13.5728 53.0421 13.5728 53.4482Z" fill="#45413C"/>
<path d="M14.0835 22.3125H54.9168V25.375H14.0835V22.3125Z" fill="#8CA4B8"/>
<path d="M53.8957 22.3125H15.104C14.8333 22.3125 14.5736 22.4201 14.3822 22.6115C14.1908 22.8029 14.0832 23.0626 14.0832 23.3333V24.3542C14.0725 24.4389 14.0725 24.5246 14.0832 24.6094C14.1411 24.3848 14.2737 24.1866 14.4593 24.0474C14.6448 23.9082 14.8722 23.8364 15.104 23.8438H53.8957C54.1275 23.8364 54.3549 23.9082 54.5405 24.0474C54.726 24.1866 54.8587 24.3848 54.9165 24.6094C54.9272 24.5246 54.9272 24.4389 54.9165 24.3542V23.3333C54.9165 23.0626 54.809 22.8029 54.6175 22.6115C54.4261 22.4201 54.1664 22.3125 53.8957 22.3125Z" fill="#ADC4D9"/>
<path d="M14.0835 22.3125H54.9168V25.375H14.0835V22.3125Z" stroke="#45413C" stroke-width="0.5" stroke-linecap="round" stroke-linejoin="round"/>
<path d="M15.104 25.375H53.8957V51.4062C53.8957 51.677 53.7881 51.9366 53.5967 52.1281C53.4052 52.3195 53.1456 52.4271 52.8748 52.4271H16.1248C15.8541 52.4271 15.5944 52.3195 15.403 52.1281C15.2116 51.9366 15.104 51.677 15.104 51.4062V25.375Z" fill="white"/>
<path d="M15.104 25.375H53.8957V27.6719H15.104V25.375Z" fill="#E0E0E0"/>
<path d="M15.104 25.375H53.8957V51.4062C53.8957 51.677 53.7881 51.9366 53.5967 52.1281C53.4052 52.3195 53.1456 52.4271 52.8748 52.4271H16.1248C15.8541 52.4271 15.5944 52.3195 15.403 52.1281C15.2116 51.9366 15.104 51.677 15.104 51.4062V25.375Z" stroke="#45413C" stroke-width="0.5" stroke-linecap="round" stroke-linejoin="round"/>
<path d="M23.7812 19.7607H45.2188V52.4274H23.7812V19.7607Z" fill="white"/>
<path d="M23.7812 19.7607H45.2188V21.588H23.7812V19.7607Z" fill="#E0E0E0"/>
<path d="M23.7812 19.7607H45.2188V52.4274H23.7812V19.7607Z" stroke="#45413C" stroke-width="0.5" stroke-linecap="round" stroke-linejoin="round"/>
<path d="M28.375 41.1982H40.625V52.4274H28.375V41.1982Z" fill="#00B8F0"/>
<path d="M30.8657 52.4274H36.1741L40.6249 41.6372V41.1982H35.4901L30.8657 52.4274Z" fill="#4ACFFF"/>
<path d="M28.375 41.1982H40.625V52.4274H28.375V41.1982Z" stroke="#45413C" stroke-width="0.5" stroke-linecap="round" stroke-linejoin="round"/>
<path d="M27.354 37.625H41.6457V41.1979H27.354V37.625Z" fill="#8CA4B8"/>
<path d="M40.6251 37.625H28.3751C28.1044 37.625 27.8447 37.7326 27.6533 37.924C27.4618 38.1154 27.3543 38.3751 27.3543 38.6458V40.1771C27.3494 40.2178 27.3494 40.2589 27.3543 40.2996C27.3867 40.0524 27.5084 39.8257 27.6964 39.6621C27.8845 39.4985 28.1259 39.4093 28.3751 39.4115H40.6251C40.8744 39.4093 41.1158 39.4985 41.3038 39.6621C41.4919 39.8257 41.6135 40.0524 41.6459 40.2996C41.6509 40.2589 41.6509 40.2178 41.6459 40.1771V38.6458C41.6459 38.3751 41.5384 38.1154 41.3469 37.924C41.1555 37.7326 40.8959 37.625 40.6251 37.625Z" fill="#ADC4D9"/>
<path d="M27.354 37.625H41.6457V41.1979H27.354V37.625Z" stroke="#45413C" stroke-width="0.5" stroke-linecap="round" stroke-linejoin="round"/>
<path d="M22.7603 16.6982H46.2394V19.7607H22.7603V16.6982Z" fill="#8CA4B8"/>
<path d="M45.2186 16.6982H23.7811C23.5103 16.6982 23.2507 16.8058 23.0592 16.9972C22.8678 17.1887 22.7603 17.4483 22.7603 17.7191V18.7399C22.7663 18.8268 22.7835 18.9126 22.8113 18.9951C22.867 18.779 22.9921 18.5872 23.1672 18.4489C23.3423 18.3106 23.558 18.2336 23.7811 18.2295H45.2186C45.4504 18.2222 45.6778 18.294 45.8634 18.4331C46.0489 18.5723 46.1816 18.7705 46.2394 18.9951C46.2501 18.9104 46.2501 18.8246 46.2394 18.7399V17.7191C46.2394 17.4483 46.1319 17.1887 45.9404 16.9972C45.749 16.8058 45.4893 16.6982 45.2186 16.6982Z" fill="#ADC4D9"/>
<path d="M22.7603 16.6982H46.2394V19.7607H22.7603V16.6982Z" stroke="#45413C" stroke-width="0.5" stroke-linecap="round" stroke-linejoin="round"/>
<path d="M38.0728 26.3958H36.5415C36.4061 26.3958 36.2763 26.3421 36.1806 26.2463C36.0849 26.1506 36.0311 26.0208 36.0311 25.8854V24.3542C36.0311 24.2188 35.9773 24.089 35.8816 23.9932C35.7859 23.8975 35.656 23.8438 35.5207 23.8438H33.479C33.3436 23.8438 33.2138 23.8975 33.1181 23.9932C33.0224 24.089 32.9686 24.2188 32.9686 24.3542V25.8854C32.9686 26.0208 32.9148 26.1506 32.8191 26.2463C32.7234 26.3421 32.5935 26.3958 32.4582 26.3958H30.9269C30.7915 26.3958 30.6617 26.4496 30.566 26.5453C30.4703 26.6411 30.4165 26.7709 30.4165 26.9062V28.9479C30.4165 29.0833 30.4703 29.2131 30.566 29.3088C30.6617 29.4046 30.7915 29.4583 30.9269 29.4583H32.4582C32.5935 29.4583 32.7234 29.5121 32.8191 29.6078C32.9148 29.7036 32.9686 29.8334 32.9686 29.9687V31.5C32.9686 31.6354 33.0224 31.7652 33.1181 31.8609C33.2138 31.9566 33.3436 32.0104 33.479 32.0104H35.5207C35.656 32.0104 35.7859 31.9566 35.8816 31.8609C35.9773 31.7652 36.0311 31.6354 36.0311 31.5V29.9687C36.0311 29.8334 36.0849 29.7036 36.1806 29.6078C36.2763 29.5121 36.4061 29.4583 36.5415 29.4583H38.0728C38.2081 29.4583 38.338 29.4046 38.4337 29.3088C38.5294 29.2131 38.5832 29.0833 38.5832 28.9479V26.9062C38.5832 26.7709 38.5294 26.6411 38.4337 26.5453C38.338 26.4496 38.2081 26.3958 38.0728 26.3958Z" fill="#FF6242" stroke="#45413C" stroke-width="0.5" stroke-linecap="round" stroke-linejoin="round"/>
<path d="M18.1665 27.9268H20.7186V32.5205H18.1665V27.9268Z" fill="#00B8F0"/>
<path d="M18.6772 32.5204H20.2085C20.3438 32.5204 20.4737 32.4667 20.5694 32.3709C20.6651 32.2752 20.7189 32.1454 20.7189 32.01V28.4371C20.7159 28.3255 20.6765 28.2179 20.6066 28.1309L18.3403 32.3877C18.4326 32.4717 18.5525 32.5189 18.6772 32.5204Z" fill="#4ACFFF"/>
<path d="M18.1665 35.0732H20.7186V39.667H18.1665V35.0732Z" fill="#00B8F0"/>
<path d="M18.6772 39.6669H20.2085C20.3438 39.6669 20.4737 39.6132 20.5694 39.5174C20.6651 39.4217 20.7189 39.2919 20.7189 39.1565V35.5836C20.7159 35.472 20.6765 35.3644 20.6066 35.2773L18.3403 39.5342C18.4326 39.6181 18.5525 39.6653 18.6772 39.6669Z" fill="#4ACFFF"/>
<path d="M18.1665 42.2188H20.7186V46.8125H18.1665V42.2188Z" fill="#00B8F0"/>
<path d="M18.6772 46.8124H20.2085C20.3438 46.8124 20.4737 46.7587 20.5694 46.6629C20.6651 46.5672 20.7189 46.4374 20.7189 46.302V42.7291C20.7159 42.6175 20.6765 42.5099 20.6066 42.4229L18.3403 46.6797C18.4326 46.7636 18.5525 46.8109 18.6772 46.8124Z" fill="#4ACFFF"/>
<path d="M18.1665 27.9268H20.7186V32.5205H18.1665V27.9268ZM18.1665 35.0726H20.7186V39.6663H18.1665V35.0726ZM18.1665 42.2184H20.7186V46.8122H18.1665V42.2184Z" stroke="#45413C" stroke-width="0.5" stroke-linecap="round" stroke-linejoin="round"/>
<path d="M48.2812 27.9268H50.8333V32.5205H48.2812V27.9268Z" fill="#00B8F0"/>
<path d="M48.7915 32.5204H50.3227C50.4581 32.5204 50.5879 32.4667 50.6836 32.3709C50.7794 32.2752 50.8331 32.1454 50.8331 32.01V28.4371C50.8302 28.3255 50.7908 28.2179 50.7208 28.1309L48.4546 32.3877C48.5469 32.4717 48.6667 32.5189 48.7915 32.5204Z" fill="#4ACFFF"/>
<path d="M48.2812 35.0732H50.8333V39.667H48.2812V35.0732Z" fill="#00B8F0"/>
<path d="M48.7915 39.6669H50.3227C50.4581 39.6669 50.5879 39.6132 50.6836 39.5174C50.7794 39.4217 50.8331 39.2919 50.8331 39.1565V35.5836C50.8302 35.472 50.7908 35.3644 50.7208 35.2773L48.4546 39.5342C48.5469 39.6181 48.6667 39.6653 48.7915 39.6669Z" fill="#4ACFFF"/>
<path d="M48.2812 42.2188H50.8333V46.8125H48.2812V42.2188Z" fill="#00B8F0"/>
<path d="M48.7915 46.8124H50.3227C50.4581 46.8124 50.5879 46.7587 50.6836 46.6629C50.7794 46.5672 50.8331 46.4374 50.8331 46.302V42.7291C50.8302 42.6175 50.7908 42.5099 50.7208 42.4229L48.4546 46.6797C48.5469 46.7636 48.6667 46.8109 48.7915 46.8124Z" fill="#4ACFFF"/>
<path d="M34.5 41.1976V52.4268M48.2812 27.9268H50.8333V32.5205H48.2812V27.9268ZM48.2812 35.0726H50.8333V39.6663H48.2812V35.0726ZM48.2812 42.2184H50.8333V46.8122H48.2812V42.2184Z" stroke="#45413C" stroke-width="0.5" stroke-linecap="round" stroke-linejoin="round"/>
</g>
<defs>
<clipPath id="clip0_2350_242">
<rect y="0.984375" width="68" height="68" rx="20" fill="white"/>
</clipPath>
</defs>
</svg>
