<svg width="68" height="69" viewBox="0 0 68 69" fill="none" xmlns="http://www.w3.org/2000/svg">
<rect y="0.984375" width="68" height="68" rx="20" fill="#0328EE"/>
<g clip-path="url(#clip0_2350_218)">
<path d="M34.2334 41.1172C26.9127 41.1172 20.7358 42.3134 20.7358 46.9303C20.7358 51.549 26.9526 52.7032 34.2334 52.7032C41.5541 52.7032 47.731 51.507 47.731 46.8901C47.731 42.2714 41.5142 41.1172 34.2334 41.1172Z" fill="white"/>
<path opacity="0.4" d="M34.2332 36.7186C39.1903 36.7186 43.1651 32.7209 43.1651 27.7353C43.1651 22.7477 39.1903 18.752 34.2332 18.752C29.2761 18.752 25.3013 22.7477 25.3013 27.7353C25.3013 32.7209 29.2761 36.7186 34.2332 36.7186Z" fill="white"/>
<path opacity="0.4" d="M53.6255 29.8277C54.908 24.7828 51.1479 20.252 46.3599 20.252C45.8393 20.252 45.3415 20.3093 44.8551 20.4067C44.7905 20.422 44.7183 20.4545 44.6803 20.5118C44.6366 20.5845 44.6689 20.6819 44.7164 20.745C46.1547 22.7744 46.9812 25.2452 46.9812 27.8976C46.9812 30.4392 46.2231 32.8087 44.8931 34.7751C44.7563 34.9777 44.8779 35.2509 45.1192 35.293C45.4536 35.3522 45.7956 35.3828 46.1452 35.3923C49.6317 35.4841 52.761 33.2272 53.6255 29.8277Z" fill="white"/>
<path d="M57.2782 41.7058C56.6398 40.3375 55.0989 39.3993 52.7562 38.9387C51.6504 38.6674 48.6579 38.2852 45.8744 38.3368C45.8326 38.3425 45.8098 38.3712 45.806 38.3903C45.8003 38.417 45.8117 38.4629 45.8668 38.4916C47.1531 39.1317 52.1254 41.916 51.5003 47.7883C51.4737 48.0424 51.677 48.2622 51.9297 48.224C53.1533 48.0482 56.3016 47.3679 57.2782 45.2486C57.8178 44.1288 57.8178 42.8275 57.2782 41.7058Z" fill="white"/>
<path opacity="0.4" d="M23.8269 20.4077C23.3424 20.3083 22.8427 20.2529 22.3221 20.2529C17.5342 20.2529 13.7741 24.7838 15.0585 29.8287C15.9211 33.2282 19.0504 35.485 22.5368 35.3933C22.8864 35.3838 23.2303 35.3513 23.5628 35.294C23.8041 35.2519 23.9257 34.9786 23.7889 34.7761C22.4589 32.8078 21.7008 30.4402 21.7008 27.8986C21.7008 25.2443 22.5292 22.7734 23.9675 20.7459C24.0131 20.6829 24.0473 20.5854 24.0017 20.5128C23.9637 20.4536 23.8934 20.423 23.8269 20.4077Z" fill="white"/>
<path d="M15.9262 38.9371C13.5835 39.3977 12.0445 40.3359 11.4061 41.7042C10.8646 42.8259 10.8646 44.1272 11.4061 45.249C12.3827 47.3663 15.531 48.0485 16.7546 48.2224C17.0073 48.2606 17.2087 48.0428 17.1821 47.7867C16.557 41.9163 21.5293 39.1321 22.8175 38.4919C22.8707 38.4613 22.8821 38.4174 22.8764 38.3887C22.8726 38.3696 22.8517 38.3409 22.8099 38.3371C20.0245 38.2836 17.0339 38.6658 15.9262 38.9371Z" fill="white"/>
</g>
<defs>
<clipPath id="clip0_2350_218">
<rect width="47" height="35" fill="white" transform="translate(11 17.9844)"/>
</clipPath>
</defs>
</svg>
